<svg data-v-0dd9719b="" version="1.0" xmlns="http://www.w3.org/2000/svg" xmlns:xlink="http://www.w3.org/1999/xlink" width="100%" height="100%" viewBox="0 0 340.000000 250.000000" preserveAspectRatio="xMidYMid meet" color-interpolation-filters="sRGB" style="margin: auto;"> <rect data-v-0dd9719b="" x="0" y="0" width="100%" height="100%" fill="#feffff" fill-opacity="1" class="background"></rect> <rect data-v-0dd9719b="" x="0" y="0" width="100%" height="100%" fill="url(#watermark)" fill-opacity="1" class="watermarklayer"></rect> <g data-v-0dd9719b="" fill="#333" class="iconlettersvg-g iconlettersvg" transform="translate(98.42652893066406,100)"><g><g class="tp-name"><g transform="scale(1)"><g transform="translate(0, 0)"><g class="name-imagesvg"><g><rect fill="#333" fill-opacity="0" stroke-width="2" x="0" y="0" width="50.94631994927214" height="50" class="image-rect"></rect> <svg x="0" y="0" width="50.94631994927214" height="50" filtersec="colorsb7652752593" class="image-svg-svg primary" style="overflow: visible;"><svg xmlns="http://www.w3.org/2000/svg" viewBox="0 0 29.61 29.06"><path d="M29.61 29.06H23.8l-2.66-5.19-6.33-12.45-6.34 12.45-2.65 5.19H0l2.64-5.19L14.81 0 27 23.87z" fill="#009dda"></path></svg></svg> <!----></g></g></g><g transform="translate(50.94631994927214, 0)"><g class="name-imagesvg"><g><rect fill="#333" fill-opacity="0" stroke-width="2" x="0" y="0" width="50.94631994927214" height="50" class="image-rect"></rect> <svg x="0" y="0" width="50.94631994927214" height="50" filtersec="colorsb6985726853" class="image-svg-svg primary" style="overflow: visible;"><svg xmlns="http://www.w3.org/2000/svg" viewBox="0 0 29.61 29.06"><path d="M29.61 29.06H23.8l-2.66-5.19-6.33-12.45-6.34 12.45-2.65 5.19H0l2.64-5.19L14.81 0 27 23.87z" fill="#009dda"></path></svg></svg> <!----></g></g></g><g transform="translate(101.89263989854427, 0)"><g class="name-imagesvg"><g><rect fill="#333" fill-opacity="0" stroke-width="2" x="0" y="0" width="41.25429538511433" height="50" class="image-rect"></rect> <svg x="0" y="0" width="41.25429538511433" height="50" filtersec="colorsb7836483472" class="image-svg-svg primary" style="overflow: visible;"><svg xmlns="http://www.w3.org/2000/svg" viewBox="0 0 24.01 29.1"><path d="M16.34 23.87V29H9.25a9.06 9.06 0 0 1-4.07-.95A9.35 9.35 0 0 1 0 19.79V0h5.18v20.31a4.15 4.15 0 0 0 3.55 3.56z" fill="#7e5bf6"></path><path fill="#df5bd3" d="M24.01 23.94v5.16h-5.16v-5.16z"></path></svg></svg> <!----></g></g></g></g></g></g> <!----></g><defs v-gra="od"></defs></svg>